<svg xmlns="http://www.w3.org/2000/svg" viewBox="0 0 304.34 141.72"><defs><style>.cls-1{fill:#fee16b;}.cls-2{fill:#fee26d;}.cls-3{fill:#fecc00;}.cls-4{fill:#001a37;}.cls-5{fill:#fefefe;}.cls-6{fill:#6c3;}.cls-7{fill:#f2f2f2;}</style></defs><title>civMeta</title><g id="civ"><g id="LHxhNH.tif"><path class="cls-1" d="M-.06,68.61H0q0,2.25,0,4.51H-.06Z"/><path class="cls-2" d="M140,68.61H140v4.49H140Q140,70.86,140,68.61Z"/><path class="cls-1" d="M67.8.88a.11.11,0,0,0,0-.06h4.35a.11.11,0,0,0,0,.06Z"/><path class="cls-1" d="M67.81,140.91a.11.11,0,0,0,0-.06h4.37a.11.11,0,0,0,0,.06Z"/><path class="cls-3" d="M72.17,140.85H67.8a68.25,68.25,0,0,1-8.86-.83,69.55,69.55,0,0,1-32.77-14.53A69.91,69.91,0,0,1,8.48,104.36,69.67,69.67,0,0,1,0,73.11q0-2.25,0-4.51a67.8,67.8,0,0,1,.69-7.89,68.53,68.53,0,0,1,3-12.61A70.11,70.11,0,0,1,54,2.66a67.79,67.79,0,0,1,9.29-1.51c1.5-.14,3-.25,4.51-.28h4.37a66.55,66.55,0,0,1,7.44.62,69.8,69.8,0,0,1,35,15.38,70.09,70.09,0,0,1,16.53,19.81,69.27,69.27,0,0,1,6.69,16.69,68,68,0,0,1,1.81,10.09c.17,1.71.31,3.42.35,5.14q0,2.25,0,4.5a67.7,67.7,0,0,1-1.15,10.69,70,70,0,0,1-54.28,55.57,68.73,68.73,0,0,1-7.44,1.16C75.46,140.69,73.82,140.83,72.17,140.85ZM7.3,70.87A62.69,62.69,0,1,0,69.56,8.17,62.69,62.69,0,0,0,7.3,70.87Z"/><path class="cls-4" d="M7.3,70.87a62.69,62.69,0,1,1,62.21,62.67A62.7,62.7,0,0,1,7.3,70.87Zm25.91,5c-.14,0-.19-.11-.27-.19q-2.79-2.57-5.56-5.14c-.24-.22-.35-.2-.56,0Q21.91,75.81,17,81c-.19.2-.16.28,0,.45l25.84,23.84q9.46,8.74,18.92,17.48c.25.23.36.21.59,0q5.3-5.63,10.64-11.24c.22-.23.19-.33,0-.53L53.83,93.29c-2.67-2.47-5.39-4.89-7.81-7.62A22.69,22.69,0,0,1,42.61,81a10.81,10.81,0,0,1-1.15-6.86,11.89,11.89,0,0,1,4-7,7.55,7.55,0,0,1,3.35-1.89,7.46,7.46,0,0,1,5.55,1,35.16,35.16,0,0,1,5.33,4.09c3.06,2.66,6,5.46,9,8.21Q78,87.18,87.34,95.82c.2.19.3.18.48,0q5.37-5.69,10.75-11.37c.16-.17.14-.25,0-.4L80.29,67.19c-2.72-2.52-5.5-5-8-7.72a24.56,24.56,0,0,1-4.17-5.77A11,11,0,0,1,70.72,40.4a7.37,7.37,0,0,1,8.88-1,34.94,34.94,0,0,1,4.63,3.34c2.43,2,4.71,4.24,7,6.39Q102,59,112.71,68.95c.24.22.34.17.53,0q5.33-5.65,10.68-11.29c.2-.21.17-.31,0-.49l-7.58-7L95.67,31.08a54.23,54.23,0,0,0-7.32-5.94,16.93,16.93,0,0,0-18-.87,23.82,23.82,0,0,0-6.46,5.11A21.31,21.31,0,0,0,58.32,41a28.89,28.89,0,0,0-.14,7c0,.5.1,1,.15,1.51a24.06,24.06,0,0,0-3.8-.57,17.38,17.38,0,0,0-8.21,1.39A22.07,22.07,0,0,0,37.93,57C34,61.88,32.62,67.58,33,73.79c0,.71.11,1.42.17,2.12Z"/><path class="cls-5" d="M33.2,75.91c-.06-.71-.12-1.41-.17-2.12C32.62,67.58,34,61.88,37.93,57a22.07,22.07,0,0,1,8.39-6.62,17.38,17.38,0,0,1,8.21-1.39,24.06,24.06,0,0,1,3.8.57c-.05-.51-.11-1-.15-1.51a28.89,28.89,0,0,1,.14-7,21.31,21.31,0,0,1,5.57-11.66,23.82,23.82,0,0,1,6.46-5.11,16.93,16.93,0,0,1,18,.87,54.23,54.23,0,0,1,7.32,5.94l20.65,19.06,7.58,7c.19.18.22.28,0,.49q-5.35,5.64-10.68,11.29c-.19.21-.29.25-.53,0Q102,59,91.27,49.15c-2.33-2.15-4.61-4.35-7-6.39a34.94,34.94,0,0,0-4.63-3.34,7.37,7.37,0,0,0-8.88,1,11,11,0,0,0-2.59,13.29,24.56,24.56,0,0,0,4.17,5.77c2.5,2.75,5.27,5.21,8,7.72L98.55,84c.16.15.19.22,0,.4Q93.19,90.11,87.82,95.8c-.19.2-.28.2-.48,0Q78,87.18,68.65,78.56c-3-2.75-5.92-5.55-9-8.21a35.16,35.16,0,0,0-5.33-4.09,7.46,7.46,0,0,0-5.55-1,7.55,7.55,0,0,0-3.35,1.89,11.89,11.89,0,0,0-4,7A10.81,10.81,0,0,0,42.61,81,22.69,22.69,0,0,0,46,85.67c2.42,2.73,5.13,5.15,7.81,7.62L73,110.95c.22.2.24.3,0,.53q-5.33,5.61-10.64,11.24c-.22.24-.33.26-.59,0Q52.32,114,42.85,105.27L17,81.43c-.18-.17-.21-.25,0-.45q4.92-5.18,9.81-10.37c.21-.22.32-.25.56,0q2.77,2.59,5.56,5.14c.08.07.13.2.27.19l0,0,0,0S33.23,75.89,33.2,75.91Z"/><path class="cls-4" d="M33.2,75.91s0,0,0,0l0,0,0,0Z"/></g><rect class="cls-6" x="162.98" y="-2.36" width="141.91" height="145.95"/><path class="cls-7" d="M225.73,51.07A19,19,0,0,1,222.5,62a22,22,0,0,1-8.73,7.47,23.45,23.45,0,0,1,10.14,8,20.21,20.21,0,0,1,3.73,12q0,10.61-7.16,16.9t-18.84,6.29q-11.79,0-18.89-6.32t-7.1-16.87a20.81,20.81,0,0,1,3.62-12,22.54,22.54,0,0,1,10-8.09,21.42,21.42,0,0,1-8.59-7.47,19.25,19.25,0,0,1-3.14-10.84q0-10.33,6.63-16.4t17.46-6.06q10.78,0,17.44,6.06T225.73,51.07ZM217.25,89.2A15.07,15.07,0,0,0,212.9,78a15.44,15.44,0,0,0-11.37-4.32q-7,0-11.26,4.27T186,89.2q0,7,4.13,11t11.48,4q7.3,0,11.46-4T217.25,89.2ZM201.64,37.15a13.4,13.4,0,0,0-9.91,3.79q-3.79,3.79-3.79,10.3a13.85,13.85,0,0,0,3.73,10.08,14.84,14.84,0,0,0,19.93,0,13.86,13.86,0,0,0,3.73-10.08,13.86,13.86,0,0,0-3.87-10.16A13.22,13.22,0,0,0,201.64,37.15Z"/><path class="cls-7" d="M290.31,51.07A19,19,0,0,1,287.08,62a22,22,0,0,1-8.73,7.47,23.45,23.45,0,0,1,10.14,8,20.21,20.21,0,0,1,3.73,12q0,10.61-7.16,16.9t-18.84,6.29q-11.79,0-18.89-6.32t-7.1-16.87a20.81,20.81,0,0,1,3.62-12,22.54,22.54,0,0,1,10-8.09,21.42,21.42,0,0,1-8.59-7.47,19.25,19.25,0,0,1-3.14-10.84q0-10.33,6.63-16.4t17.46-6.06q10.78,0,17.44,6.06T290.31,51.07ZM281.83,89.2A15.07,15.07,0,0,0,277.48,78a15.44,15.44,0,0,0-11.37-4.32q-7,0-11.26,4.27T250.61,89.2q0,7,4.13,11t11.48,4q7.3,0,11.46-4T281.83,89.2ZM266.22,37.15a13.4,13.4,0,0,0-9.91,3.79q-3.79,3.79-3.79,10.3a13.85,13.85,0,0,0,3.73,10.08,14.84,14.84,0,0,0,19.93,0,13.86,13.86,0,0,0,3.73-10.08A13.86,13.86,0,0,0,276,41.08,13.22,13.22,0,0,0,266.22,37.15Z"/></g></svg>