<svg xmlns="http://www.w3.org/2000/svg" viewBox="0 0 304.28 141.72"><defs><style>.cls-1{fill:#ed3225;}.cls-2{fill:#ed3326;}.cls-3{fill:#ed3226;}.cls-4{fill:#dd222a;}.cls-5{fill:#f2f2f2;}</style></defs><title>owIGN</title><g id="owIGN"><g id="lnXEFv.tif"><path class="cls-1" d="M140,70.3c0,3.38,0,6.76,0,10.14a1.54,1.54,0,0,1-1.1,1.71,91.79,91.79,0,0,1-20.24,5.52c-4.09.71-8.21,1.19-12.31,1.82a3.71,3.71,0,0,1-3.77-1.4c-4.93-5.69-10-11.27-15-16.86-.6-.66-.72-1-.05-1.75q7.93-8.75,15.75-17.59a2,2,0,0,1,1.87-.84c9.56,1.11,19.09,2.39,28.31,5.31,1.88.59,3.71,1.31,5.54,2A1.44,1.44,0,0,1,140,60C140,63.45,140,66.87,140,70.3Z"/><path class="cls-1" d="M69.9,140.39c-3.34,0-6.68,0-10,0a1.6,1.6,0,0,1-1.79-1.16,93.86,93.86,0,0,1-5.37-19.63c-.83-4.5-1.32-9.05-1.89-13.59a2.73,2.73,0,0,1,1-2.68q8.77-7.72,17.42-15.57c.69-.62,1-.51,1.65,0q8.77,7.91,17.6,15.77a1.76,1.76,0,0,1,.81,1.61c-1.36,11.7-3,23.33-7.56,34.33a1.25,1.25,0,0,1-1.43.87C76.84,140.38,73.37,140.39,69.9,140.39Z"/><path class="cls-1" d="M35.2,89.63a188.92,188.92,0,0,1-21.7-3.57A79.38,79.38,0,0,1,1,82.1a1.38,1.38,0,0,1-1-1.49Q.08,70.28,0,59.94a1.38,1.38,0,0,1,1-1.51,96.39,96.39,0,0,1,22.79-5.9C27.4,52,31,51.61,34.62,51.1a2.25,2.25,0,0,1,2.23.83q7.79,8.79,15.66,17.52c.61.68.64,1,0,1.74q-7.83,8.67-15.57,17.42C36.32,89.32,35.7,89.76,35.2,89.63Z"/><path class="cls-1" d="M70,.38c3.43,0,6.85,0,10.28,0a1.44,1.44,0,0,1,1.59,1.08,95.79,95.79,0,0,1,5.55,20.39c.77,4.38,1.34,8.79,1.86,13.21a2.21,2.21,0,0,1-.84,2.11Q79.69,44.89,71,52.73c-.77.7-1.21.67-2,0Q60.34,44.84,51.56,37a1.79,1.79,0,0,1-.78-1.63c1.24-11.28,2.81-22.5,7-33.18.55-1.41,1.19-2,2.75-1.9C63.65.48,66.83.38,70,.38Z"/><path class="cls-1" d="M92.25,127.68c.47-2.42.92-4.62,1.34-6.83q1-5.36,1.6-10.79a2.35,2.35,0,0,1,1.12-1.86A45.58,45.58,0,0,0,108,96.57c.31-.44.54-.9,1.23-1a179.77,179.77,0,0,0,17.95-3c-.31,3.82-7.75,15.44-13.63,21.27A61.33,61.33,0,0,1,92.25,127.68Z"/><path class="cls-2" d="M12.6,92.5c4.31.92,8.24,1.68,12.22,2.26,1.9.28,3.81.55,5.72.77a2,2,0,0,1,1.54.94A45.08,45.08,0,0,0,43.89,108.3a1.94,1.94,0,0,1,.92,1.54,169,169,0,0,0,2.74,16.83c.05.24.06.49.11,1C31.08,120.76,19.52,109.18,12.6,92.5Z"/><path class="cls-3" d="M92.33,12.94c16.56,6.85,28.13,18.42,35,34.82-.52.33-.93.09-1.31,0a158.65,158.65,0,0,0-16.44-2.65A1.94,1.94,0,0,1,108,44.2,45.75,45.75,0,0,0,96.11,32.3a1.86,1.86,0,0,1-.88-1.45,152.78,152.78,0,0,0-2.9-17.18A4.36,4.36,0,0,1,92.33,12.94Z"/><path class="cls-3" d="M47.72,12.94c-.27,1.41-.48,2.53-.71,3.64-1,4.74-1.64,9.52-2.21,14.31a1.82,1.82,0,0,1-.87,1.43A46.08,46.08,0,0,0,32,44.23a1.55,1.55,0,0,1-1.17.85,158.89,158.89,0,0,0-17.2,2.77.8.8,0,0,1-.87-.14C19.58,31.42,31.12,19.88,47.72,12.94Z"/></g><rect class="cls-4" x="161.41" y="-2.13" width="145.98" height="145.98"/><path class="cls-5" d="M204.3,75.38a22.11,22.11,0,0,1-6.76,5.42,18.35,18.35,0,0,1-8.62,2.05,18.94,18.94,0,0,1-10.72-3,19.68,19.68,0,0,1-7.06-8.52,29,29,0,0,1-2.49-12.13,29.6,29.6,0,0,1,2.71-12.84,19.91,19.91,0,0,1,7.69-8.74,21.93,21.93,0,0,1,11.62-3q10.55,0,16.63,7.89T213.38,64v2.64q0,20.75-8.2,30.3t-24.76,9.79h-1.76V99h1.9q11.18-.19,17.19-5.82T204.3,75.38Zm-13.92,0a14,14,0,0,0,8.37-2.78,16.41,16.41,0,0,0,5.59-6.88V62.1q0-8.89-3.86-14.45t-9.77-5.57a11.6,11.6,0,0,0-9.57,4.57q-3.61,4.57-3.61,12,0,7.28,3.49,12A11.05,11.05,0,0,0,190.38,75.38Z"/><path class="cls-5" d="M227,101.89A5.66,5.66,0,0,1,228.35,98a5.3,5.3,0,0,1,4.17-1.56A5.46,5.46,0,0,1,236.75,98a5.54,5.54,0,0,1,1.44,3.91,5.24,5.24,0,0,1-1.44,3.76,5.56,5.56,0,0,1-4.22,1.51,5,5,0,0,1-5.57-5.27Z"/><path class="cls-5" d="M290.29,82.75h9.86v7.37h-9.86v16.5H281.2V90.12H248.83V84.8l31.84-49.27h9.62Zm-31.2,0H281.2V47.89l-1.07,2Z"/></g></svg>