<svg xmlns="http://www.w3.org/2000/svg" viewBox="0 0 304.34 141.72"><defs><style>.cls-1{fill:#fee16b;}.cls-2{fill:#fee26d;}.cls-3{fill:#fecc00;}.cls-4{fill:#001a37;}.cls-5{fill:#fefefe;}.cls-6{fill:#6c3;}.cls-7{fill:#f2f2f2;}</style></defs><title>owMeta</title><g id="overwatch"><g id="LHxhNH.tif"><path class="cls-1" d="M0,67.8H.06q0,2.25,0,4.51H0Z"/><path class="cls-2" d="M140,67.79h.06v4.49H140Q140,70,140,67.79Z"/><path class="cls-1" d="M67.86.06a.11.11,0,0,0,0-.06h4.35a.11.11,0,0,0,0,.06Z"/><path class="cls-1" d="M67.87,140.09a.11.11,0,0,0,0-.06h4.37a.11.11,0,0,0,0,.06Z"/><path class="cls-3" d="M72.23,140H67.86A68.25,68.25,0,0,1,59,139.2a69.55,69.55,0,0,1-32.77-14.53A69.91,69.91,0,0,1,8.54,103.55,69.67,69.67,0,0,1,.06,72.3q0-2.25,0-4.51a67.8,67.8,0,0,1,.69-7.89,68.53,68.53,0,0,1,3-12.61A70.11,70.11,0,0,1,54.06,1.85,67.79,67.79,0,0,1,63.35.34c1.5-.14,3-.25,4.51-.28h4.37a66.55,66.55,0,0,1,7.44.62,69.8,69.8,0,0,1,35,15.38,70.09,70.09,0,0,1,16.53,19.81,69.27,69.27,0,0,1,6.69,16.69,68,68,0,0,1,1.81,10.09c.17,1.71.31,3.42.35,5.14q0,2.25,0,4.5A67.7,67.7,0,0,1,138.88,83,70,70,0,0,1,84.6,138.55a68.73,68.73,0,0,1-7.44,1.16C75.52,139.88,73.88,140,72.23,140Zm-64.87-70A62.69,62.69,0,1,0,69.62,7.36,62.69,62.69,0,0,0,7.36,70.06Z"/><path class="cls-4" d="M7.36,70.06a62.69,62.69,0,1,1,62.21,62.67A62.7,62.7,0,0,1,7.36,70.06Zm25.91,5c-.14,0-.19-.11-.27-.19q-2.79-2.57-5.56-5.14c-.24-.22-.35-.2-.56,0Q22,75,17.06,80.17c-.19.2-.16.28,0,.45l25.84,23.84q9.46,8.74,18.92,17.48c.25.23.36.21.59,0q5.3-5.63,10.64-11.24c.22-.23.19-.33,0-.53L53.9,92.48c-2.67-2.47-5.39-4.89-7.81-7.62a22.69,22.69,0,0,1-3.41-4.69,10.81,10.81,0,0,1-1.15-6.86,11.89,11.89,0,0,1,4-7,7.55,7.55,0,0,1,3.35-1.89,7.46,7.46,0,0,1,5.55,1,35.16,35.16,0,0,1,5.33,4.09c3.06,2.66,6,5.46,9,8.21Q78.07,86.36,87.4,95c.2.19.3.18.48,0q5.37-5.69,10.75-11.37c.16-.17.14-.25,0-.4L80.36,66.37c-2.72-2.52-5.5-5-8-7.72a24.56,24.56,0,0,1-4.17-5.77,11,11,0,0,1,2.59-13.29,7.37,7.37,0,0,1,8.88-1,34.94,34.94,0,0,1,4.63,3.34c2.43,2,4.71,4.24,7,6.39q10.73,9.89,21.45,19.8c.24.22.34.17.53,0q5.33-5.65,10.68-11.29c.2-.21.17-.31,0-.49l-7.58-7L95.73,30.27a54.23,54.23,0,0,0-7.32-5.94,16.93,16.93,0,0,0-18-.87A23.82,23.82,0,0,0,64,28.57a21.31,21.31,0,0,0-5.57,11.66,28.89,28.89,0,0,0-.14,7c0,.5.1,1,.15,1.51a24.06,24.06,0,0,0-3.8-.57,17.38,17.38,0,0,0-8.21,1.39A22.07,22.07,0,0,0,38,56.14C34,61.06,32.68,66.77,33.1,73c0,.71.11,1.42.17,2.12Z"/><path class="cls-5" d="M33.27,75.1c-.06-.71-.12-1.41-.17-2.12C32.68,66.77,34,61.06,38,56.14a22.07,22.07,0,0,1,8.39-6.62,17.38,17.38,0,0,1,8.21-1.39,24.06,24.06,0,0,1,3.8.57c-.05-.51-.11-1-.15-1.51a28.89,28.89,0,0,1,.14-7A21.31,21.31,0,0,1,64,28.57a23.82,23.82,0,0,1,6.46-5.11,16.93,16.93,0,0,1,18,.87,54.23,54.23,0,0,1,7.32,5.94l20.65,19.06,7.58,7c.19.18.22.28,0,.49q-5.35,5.64-10.68,11.29c-.19.21-.29.25-.53,0q-10.71-9.91-21.45-19.8c-2.33-2.15-4.61-4.35-7-6.39a34.94,34.94,0,0,0-4.63-3.34,7.37,7.37,0,0,0-8.88,1,11,11,0,0,0-2.59,13.29,24.56,24.56,0,0,0,4.17,5.77c2.5,2.75,5.27,5.21,8,7.72L98.61,83.22c.16.15.19.22,0,.4Q93.25,89.29,87.88,95c-.19.2-.28.2-.48,0q-9.34-8.64-18.69-17.26c-3-2.75-5.92-5.55-9-8.21a35.16,35.16,0,0,0-5.33-4.09,7.46,7.46,0,0,0-5.55-1,7.55,7.55,0,0,0-3.35,1.89,11.89,11.89,0,0,0-4,7,10.81,10.81,0,0,0,1.15,6.86,22.69,22.69,0,0,0,3.41,4.69c2.42,2.73,5.13,5.15,7.81,7.62L73,110.13c.22.2.24.3,0,.53q-5.33,5.61-10.64,11.24c-.22.24-.33.26-.59,0q-9.45-8.75-18.92-17.48L17.08,80.62c-.18-.17-.21-.25,0-.45Q22,75,26.87,69.8c.21-.22.32-.25.56,0Q30.2,72.36,33,74.91c.08.07.13.2.27.19l0,0,0,0S33.3,75.08,33.27,75.1Z"/><path class="cls-4" d="M33.27,75.1s0,0,0,0l0,0,0,0Z"/></g><rect class="cls-6" x="163.04" y="-2.58" width="143.25" height="145.83"/><path class="cls-7" d="M225.71,75.81A25.44,25.44,0,0,1,217.93,82,21.1,21.1,0,0,1,208,84.4a21.78,21.78,0,0,1-12.33-3.48,22.63,22.63,0,0,1-8.11-9.8,33.41,33.41,0,0,1-2.86-14,34,34,0,0,1,3.12-14.77,22.9,22.9,0,0,1,8.84-10.05A25.22,25.22,0,0,1,210,28.87q12.13,0,19.12,9.07t7,24.74v3q0,23.87-9.43,34.84T198.25,111.8h-2V103h2.19q12.86-.22,19.77-6.7T225.71,75.81Zm-16,0a16,16,0,0,0,9.63-3.2,18.87,18.87,0,0,0,6.43-7.92V60.54q0-10.22-4.44-16.62t-11.23-6.4a13.34,13.34,0,0,0-11,5.25q-4.16,5.25-4.16,13.84,0,8.37,4,13.79A12.71,12.71,0,0,0,209.7,75.81Z"/><path class="cls-7" d="M284.61,111.75H274.17V42.51L253.22,50.2V40.77L283,29.6h1.63Z"/></g></svg>