<svg xmlns="http://www.w3.org/2000/svg" viewBox="0 0 304.28 141.72"><defs><style>.cls-1{fill:#ed3225;}.cls-2{fill:#ed3326;}.cls-3{fill:#ed3226;}.cls-4{fill:#dd222a;}.cls-5{fill:#f2f2f2;}</style></defs><title>stardewIGN</title><g id="stardewIGN"><g id="lnXEFv.tif"><path class="cls-1" d="M140,70.78c0,3.38,0,6.76,0,10.14a1.54,1.54,0,0,1-1.1,1.71,91.79,91.79,0,0,1-20.24,5.52c-4.09.71-8.21,1.19-12.31,1.82a3.71,3.71,0,0,1-3.77-1.4c-4.93-5.69-10-11.27-15-16.86-.6-.66-.72-1-.05-1.75q7.93-8.75,15.75-17.59a2,2,0,0,1,1.87-.84c9.56,1.11,19.09,2.39,28.31,5.31,1.88.59,3.71,1.31,5.54,2a1.44,1.44,0,0,1,1,1.62C140,63.93,140,67.36,140,70.78Z"/><path class="cls-1" d="M69.9,140.88c-3.34,0-6.68,0-10,0a1.6,1.6,0,0,1-1.79-1.16,93.86,93.86,0,0,1-5.37-19.63c-.83-4.5-1.32-9.05-1.89-13.59a2.73,2.73,0,0,1,1-2.68q8.77-7.72,17.42-15.57c.69-.62,1-.51,1.65,0q8.77,7.91,17.6,15.77a1.76,1.76,0,0,1,.81,1.61c-1.36,11.7-3,23.33-7.56,34.33a1.25,1.25,0,0,1-1.43.87C76.84,140.86,73.37,140.88,69.9,140.88Z"/><path class="cls-1" d="M35.2,90.12a188.92,188.92,0,0,1-21.7-3.57A79.38,79.38,0,0,1,1,82.59,1.38,1.38,0,0,1,0,81.1Q.08,70.76,0,60.42a1.38,1.38,0,0,1,1-1.51A96.39,96.39,0,0,1,23.81,53c3.59-.55,7.21-.92,10.81-1.42a2.25,2.25,0,0,1,2.23.83q7.79,8.79,15.66,17.52c.61.68.64,1,0,1.74Q44.69,80.35,36.95,89.1C36.32,89.81,35.7,90.24,35.2,90.12Z"/><path class="cls-1" d="M70,.86c3.43,0,6.85,0,10.28,0a1.44,1.44,0,0,1,1.59,1.08A95.79,95.79,0,0,1,87.41,22.3c.77,4.38,1.34,8.79,1.86,13.21a2.21,2.21,0,0,1-.84,2.11Q79.69,45.38,71,53.22c-.77.7-1.21.67-2,0q-8.71-7.88-17.5-15.68a1.79,1.79,0,0,1-.78-1.63c1.24-11.28,2.81-22.5,7-33.18.55-1.41,1.19-2,2.75-1.9C63.65,1,66.83.86,70,.86Z"/><path class="cls-1" d="M92.25,128.17c.47-2.42.92-4.62,1.34-6.83q1-5.36,1.6-10.79a2.35,2.35,0,0,1,1.12-1.86A45.58,45.58,0,0,0,108,97.06c.31-.44.54-.9,1.23-1a179.77,179.77,0,0,0,17.95-3c-.31,3.82-7.75,15.44-13.63,21.27A61.33,61.33,0,0,1,92.25,128.17Z"/><path class="cls-2" d="M12.6,93c4.31.92,8.24,1.68,12.22,2.26,1.9.28,3.81.55,5.72.77a2,2,0,0,1,1.54.94,45.08,45.08,0,0,0,11.82,11.82,1.94,1.94,0,0,1,.92,1.54,169,169,0,0,0,2.74,16.83c.05.24.06.49.11,1C31.08,121.24,19.52,109.67,12.6,93Z"/><path class="cls-3" d="M92.33,13.43c16.56,6.85,28.13,18.42,35,34.82-.52.33-.93.09-1.31,0a158.65,158.65,0,0,0-16.44-2.65,1.94,1.94,0,0,1-1.55-.91,45.75,45.75,0,0,0-11.92-11.9,1.86,1.86,0,0,1-.88-1.45,152.78,152.78,0,0,0-2.9-17.18A4.36,4.36,0,0,1,92.33,13.43Z"/><path class="cls-3" d="M47.72,13.43c-.27,1.41-.48,2.53-.71,3.64-1,4.74-1.64,9.52-2.21,14.31a1.82,1.82,0,0,1-.87,1.43A46.08,46.08,0,0,0,32,44.71a1.55,1.55,0,0,1-1.17.85,158.89,158.89,0,0,0-17.2,2.77.8.8,0,0,1-.87-.14C19.58,31.9,31.12,20.36,47.72,13.43Z"/></g><rect class="cls-4" x="161.41" y="-2.21" width="145.98" height="145.98"/><path class="cls-5" d="M214.11,53.79a16.51,16.51,0,0,1-2.81,9.47,19.1,19.1,0,0,1-7.59,6.49,20.39,20.39,0,0,1,8.81,7,17.58,17.58,0,0,1,3.25,10.4q0,9.23-6.23,14.7t-16.38,5.47q-10.25,0-16.43-5.49t-6.18-14.67a18.1,18.1,0,0,1,3.15-10.4,19.61,19.61,0,0,1,8.72-7A18.62,18.62,0,0,1,175,63.22a16.74,16.74,0,0,1-2.73-9.42q0-9,5.76-14.26t15.19-5.27q9.38,0,15.16,5.27T214.11,53.79Zm-7.37,33.15A13.11,13.11,0,0,0,203,77.23a13.42,13.42,0,0,0-9.89-3.76,12.71,12.71,0,0,0-13.48,13.48q0,6.06,3.59,9.52t10,3.47q6.35,0,10-3.49T206.74,86.95ZM193.17,41.68a11.65,11.65,0,0,0-8.62,3.3q-3.3,3.3-3.3,9a12,12,0,0,0,3.25,8.76,12.9,12.9,0,0,0,17.33,0,12.05,12.05,0,0,0,3.25-8.76,12.05,12.05,0,0,0-3.37-8.84A11.49,11.49,0,0,0,193.17,41.68Z"/><path class="cls-5" d="M228.27,101.59a5.66,5.66,0,0,1,1.39-3.91,5.3,5.3,0,0,1,4.17-1.56,5.46,5.46,0,0,1,4.22,1.56,5.54,5.54,0,0,1,1.44,3.91,5.24,5.24,0,0,1-1.44,3.76,5.56,5.56,0,0,1-4.22,1.51,5,5,0,0,1-5.57-5.27Z"/><path class="cls-5" d="M296.59,53.79a16.51,16.51,0,0,1-2.81,9.47,19.1,19.1,0,0,1-7.59,6.49,20.39,20.39,0,0,1,8.81,7,17.58,17.58,0,0,1,3.25,10.4q0,9.23-6.23,14.7t-16.38,5.47q-10.25,0-16.43-5.49T253,87.14a18.1,18.1,0,0,1,3.15-10.4,19.61,19.61,0,0,1,8.72-7,18.62,18.62,0,0,1-7.47-6.49,16.74,16.74,0,0,1-2.73-9.42q0-9,5.76-14.26t15.19-5.27q9.38,0,15.16,5.27T296.59,53.79Zm-7.37,33.15a13.11,13.11,0,0,0-3.78-9.72,13.42,13.42,0,0,0-9.89-3.76,12.71,12.71,0,0,0-13.48,13.48q0,6.06,3.59,9.52t10,3.47q6.35,0,10-3.49T289.21,86.95ZM275.64,41.68A11.65,11.65,0,0,0,267,45q-3.3,3.3-3.3,9A12,12,0,0,0,267,62.7a12.9,12.9,0,0,0,17.33,0,12.05,12.05,0,0,0,3.25-8.76,12.05,12.05,0,0,0-3.37-8.84A11.49,11.49,0,0,0,275.64,41.68Z"/></g></svg>