<svg xmlns="http://www.w3.org/2000/svg" viewBox="0 0 304.4 141.72"><defs><style>.cls-1{fill:#fee16b;}.cls-2{fill:#fee26d;}.cls-3{fill:#fecc00;}.cls-4{fill:#001a37;}.cls-5{fill:#fefefe;}.cls-6{fill:#6c3;}.cls-7{fill:#f2f2f2;}</style></defs><title>stardewMeta</title><g id="stardew"><g id="LHxhNH.tif"><path class="cls-1" d="M0,68.61H.06q0,2.25,0,4.51H0Z"/><path class="cls-2" d="M140,68.61h.06v4.49H140Q140,70.86,140,68.61Z"/><path class="cls-1" d="M67.86.88a.11.11,0,0,0,0-.06h4.35a.11.11,0,0,0,0,.06Z"/><path class="cls-1" d="M67.87,140.91a.11.11,0,0,0,0-.06h4.37a.11.11,0,0,0,0,.06Z"/><path class="cls-3" d="M72.23,140.85H67.86A68.25,68.25,0,0,1,59,140a69.55,69.55,0,0,1-32.77-14.53A69.91,69.91,0,0,1,8.54,104.36,69.67,69.67,0,0,1,.06,73.11q0-2.25,0-4.51a67.8,67.8,0,0,1,.69-7.89,68.53,68.53,0,0,1,3-12.61A70.11,70.11,0,0,1,54.06,2.66a67.79,67.79,0,0,1,9.29-1.51c1.5-.14,3-.25,4.51-.28h4.37a66.55,66.55,0,0,1,7.44.62,69.8,69.8,0,0,1,35,15.38,70.09,70.09,0,0,1,16.53,19.81,69.27,69.27,0,0,1,6.69,16.69,68,68,0,0,1,1.81,10.09c.17,1.71.31,3.42.35,5.14q0,2.25,0,4.5a67.7,67.7,0,0,1-1.15,10.69A70,70,0,0,1,84.6,139.37a68.73,68.73,0,0,1-7.44,1.16C75.52,140.69,73.88,140.83,72.23,140.85Zm-64.87-70A62.69,62.69,0,1,0,69.62,8.17,62.69,62.69,0,0,0,7.36,70.87Z"/><path class="cls-4" d="M7.36,70.87a62.69,62.69,0,1,1,62.21,62.67A62.7,62.7,0,0,1,7.36,70.87Zm25.91,5c-.14,0-.19-.11-.27-.19q-2.79-2.57-5.56-5.14c-.24-.22-.35-.2-.56,0Q22,75.81,17.06,81c-.19.2-.16.28,0,.45l25.84,23.84q9.46,8.74,18.92,17.48c.25.23.36.21.59,0q5.3-5.63,10.64-11.24c.22-.23.19-.33,0-.53L53.9,93.29c-2.67-2.47-5.39-4.89-7.81-7.62A22.69,22.69,0,0,1,42.68,81a10.81,10.81,0,0,1-1.15-6.86,11.89,11.89,0,0,1,4-7,7.55,7.55,0,0,1,3.35-1.89,7.46,7.46,0,0,1,5.55,1,35.16,35.16,0,0,1,5.33,4.09c3.06,2.66,6,5.46,9,8.21q9.35,8.62,18.69,17.26c.2.19.3.18.48,0q5.37-5.69,10.75-11.37c.16-.17.14-.25,0-.4L80.36,67.19c-2.72-2.52-5.5-5-8-7.72a24.56,24.56,0,0,1-4.17-5.77A11,11,0,0,1,70.78,40.4a7.37,7.37,0,0,1,8.88-1,34.94,34.94,0,0,1,4.63,3.34c2.43,2,4.71,4.24,7,6.39q10.73,9.89,21.45,19.8c.24.22.34.17.53,0q5.33-5.65,10.68-11.29c.2-.21.17-.31,0-.49l-7.58-7L95.73,31.08a54.23,54.23,0,0,0-7.32-5.94,16.93,16.93,0,0,0-18-.87A23.82,23.82,0,0,0,64,29.38,21.31,21.31,0,0,0,58.38,41a28.89,28.89,0,0,0-.14,7c0,.5.1,1,.15,1.51a24.06,24.06,0,0,0-3.8-.57,17.38,17.38,0,0,0-8.21,1.39A22.07,22.07,0,0,0,38,57c-4,4.92-5.31,10.63-4.89,16.84,0,.71.11,1.42.17,2.12Z"/><path class="cls-5" d="M33.27,75.91c-.06-.71-.12-1.41-.17-2.12C32.68,67.58,34,61.88,38,57a22.07,22.07,0,0,1,8.39-6.62,17.38,17.38,0,0,1,8.21-1.39,24.06,24.06,0,0,1,3.8.57c-.05-.51-.11-1-.15-1.51a28.89,28.89,0,0,1,.14-7A21.31,21.31,0,0,1,64,29.38a23.82,23.82,0,0,1,6.46-5.11,16.93,16.93,0,0,1,18,.87,54.23,54.23,0,0,1,7.32,5.94l20.65,19.06,7.58,7c.19.18.22.28,0,.49q-5.35,5.64-10.68,11.29c-.19.21-.29.25-.53,0Q102.06,59,91.33,49.15c-2.33-2.15-4.61-4.35-7-6.39a34.94,34.94,0,0,0-4.63-3.34,7.37,7.37,0,0,0-8.88,1,11,11,0,0,0-2.59,13.29,24.56,24.56,0,0,0,4.17,5.77c2.5,2.75,5.27,5.21,8,7.72L98.61,84c.16.15.19.22,0,.4Q93.25,90.11,87.88,95.8c-.19.2-.28.2-.48,0q-9.34-8.64-18.69-17.26c-3-2.75-5.92-5.55-9-8.21a35.16,35.16,0,0,0-5.33-4.09,7.46,7.46,0,0,0-5.55-1,7.55,7.55,0,0,0-3.35,1.89,11.89,11.89,0,0,0-4,7A10.81,10.81,0,0,0,42.68,81a22.69,22.69,0,0,0,3.41,4.69c2.42,2.73,5.13,5.15,7.81,7.62L73,110.95c.22.2.24.3,0,.53q-5.33,5.61-10.64,11.24c-.22.24-.33.26-.59,0Q52.38,114,42.92,105.27L17.08,81.43c-.18-.17-.21-.25,0-.45Q22,75.81,26.87,70.61c.21-.22.32-.25.56,0Q30.2,73.17,33,75.73c.08.07.13.2.27.19l0,0,0,0S33.3,75.89,33.27,75.91Z"/><path class="cls-4" d="M33.27,75.91s0,0,0,0l0,0,0,0Z"/></g><rect class="cls-6" x="163.04" y="-4.59" width="145.26" height="153.05"/><path class="cls-7" d="M227.47,52.4a19,19,0,0,1-3.23,10.89,22,22,0,0,1-8.73,7.47,23.45,23.45,0,0,1,10.14,8,20.21,20.21,0,0,1,3.73,12q0,10.61-7.16,16.9t-18.84,6.29q-11.79,0-18.89-6.32t-7.1-16.87a20.81,20.81,0,0,1,3.62-12,22.54,22.54,0,0,1,10-8.09,21.42,21.42,0,0,1-8.59-7.47,19.25,19.25,0,0,1-3.14-10.84q0-10.33,6.63-16.4t17.46-6.06q10.78,0,17.44,6.06T227.47,52.4ZM219,90.53a15.07,15.07,0,0,0-4.35-11.17A15.44,15.44,0,0,0,203.27,75q-7,0-11.26,4.27t-4.24,11.23q0,7,4.13,11t11.48,4q7.3,0,11.46-4T219,90.53ZM203.38,38.47a13.4,13.4,0,0,0-9.91,3.79q-3.79,3.79-3.79,10.3a13.85,13.85,0,0,0,3.73,10.08,14.84,14.84,0,0,0,19.93,0,13.86,13.86,0,0,0,3.73-10.08,13.86,13.86,0,0,0-3.87-10.16A13.22,13.22,0,0,0,203.38,38.47Z"/><path class="cls-7" d="M292,52.4a19,19,0,0,1-3.23,10.89,22,22,0,0,1-8.73,7.47,23.45,23.45,0,0,1,10.14,8,20.21,20.21,0,0,1,3.73,12q0,10.61-7.16,16.9T268,113.94q-11.79,0-18.89-6.32T242,90.75a20.81,20.81,0,0,1,3.62-12,22.54,22.54,0,0,1,10-8.09A21.42,21.42,0,0,1,247,63.24a19.25,19.25,0,0,1-3.14-10.84q0-10.33,6.63-16.4T268,29.94q10.78,0,17.44,6.06T292,52.4Zm-8.48,38.13a15.07,15.07,0,0,0-4.35-11.17A15.44,15.44,0,0,0,267.85,75q-7,0-11.26,4.27t-4.24,11.23q0,7,4.13,11t11.48,4q7.3,0,11.46-4T283.57,90.53ZM268,38.47A13.4,13.4,0,0,0,258,42.26q-3.79,3.79-3.79,10.3A13.85,13.85,0,0,0,258,62.65a14.84,14.84,0,0,0,19.93,0,13.86,13.86,0,0,0,3.73-10.08,13.86,13.86,0,0,0-3.87-10.16A13.22,13.22,0,0,0,268,38.47Z"/></g></svg>