<svg xmlns="http://www.w3.org/2000/svg" viewBox="0 0 275.53 264.33"><defs><style>.cls-1{fill:#efefef;}.cls-1,.cls-2,.cls-3,.cls-4{fill-rule:evenodd;}.cls-2{fill:#fff;}.cls-4{fill:#f4f4f4;}.cls-5{font-size:52.74px;fill:#f2f2f2;font-family:Roboto-Regular, Roboto;}.cls-6{letter-spacing:-0.01em;}</style></defs><title>breadcrumb5</title><g id="bc5"><path class="cls-1" d="M221.53,260.54a3.75,3.75,0,0,1-3.71,3.79H28.71A3.75,3.75,0,0,1,25,260.54v-49.4a3.75,3.75,0,0,1,3.71-3.79H217.83a3.75,3.75,0,0,1,3.71,3.79Z"/><rect x="79.78" y="251.29" width="84.87" height="8.99"/><rect x="184" y="238.22" width="33.73" height="8.99"/><rect x="29.6" y="238.22" width="33.73" height="8.99"/><rect x="168.96" y="251.29" width="23.48" height="8.99"/><rect x="56.69" y="251.29" width="19.57" height="8.99"/><rect x="29.6" y="251.29" width="23.48" height="8.99"/><rect x="196.53" y="251.29" width="21.01" height="8.99"/><rect x="196.36" y="225.14" width="21.37" height="8.99"/><rect x="29.6" y="225.14" width="27.09" height="8.99"/><rect x="173.17" y="212.07" width="44.56" height="8.99"/><rect x="67.09" y="238.22" width="9.58" height="8.99"/><rect x="79.9" y="238.22" width="9.58" height="8.99"/><rect x="92.71" y="238.22" width="9.58" height="8.99"/><rect x="105.52" y="238.22" width="9.58" height="8.99"/><rect x="118.33" y="238.22" width="9.58" height="8.99"/><rect x="131.14" y="238.22" width="9.58" height="8.99"/><rect x="143.95" y="238.22" width="9.58" height="8.99"/><rect x="156.76" y="238.22" width="9.58" height="8.99"/><rect x="169.58" y="238.22" width="9.58" height="8.99"/><rect x="61.1" y="225.14" width="9.58" height="8.99"/><rect x="73.91" y="225.14" width="9.58" height="8.99"/><rect x="86.72" y="225.14" width="9.58" height="8.99"/><rect x="99.53" y="225.14" width="9.58" height="8.99"/><rect x="112.34" y="225.14" width="9.58" height="8.99"/><rect x="125.16" y="225.14" width="9.58" height="8.99"/><rect x="137.97" y="225.14" width="9.58" height="8.99"/><rect x="150.78" y="225.14" width="9.58" height="8.99"/><rect x="163.59" y="225.14" width="9.58" height="8.99"/><rect x="176.53" y="225.14" width="9.58" height="8.99"/><rect x="30.21" y="212.07" width="9.58" height="8.99"/><rect x="43.02" y="212.07" width="9.58" height="8.99"/><rect x="55.83" y="212.07" width="9.58" height="8.99"/><rect x="68.64" y="212.07" width="9.58" height="8.99"/><rect x="81.45" y="212.07" width="9.58" height="8.99"/><rect x="94.26" y="212.07" width="9.58" height="8.99"/><rect x="107.07" y="212.07" width="9.58" height="8.99"/><rect x="119.88" y="212.07" width="9.58" height="8.99"/><rect x="132.7" y="212.07" width="9.58" height="8.99"/><rect x="145.64" y="212.07" width="9.58" height="8.99"/><rect x="158.8" y="212.07" width="9.58" height="8.99"/><rect x="189.34" y="225.14" width="9.58" height="8.99"/><path class="cls-2" d="M261.78,217.63v-3.38c.7-.75,2-1.14,2.43-2.51.32-1.06.1-2.76.1-4.45a19.82,19.82,0,0,0-.1-4.35c-.41-1.46-1.7-1.95-2.43-2.51v-6.58c0-.13,0-.27.1-.29l.53,0h0l-4.91,0h.66v6.77c-.6.72-2,1.05-2.42,2.52-.33,1.09-.1,2.88-.1,4.45a21.16,21.16,0,0,0,.1,4.35c.39,1.39,1.59,1.9,2.42,2.52v3.48H243.33l0,1c0-.05,0,0,.07,0H276.6v-1Zm-4.53-7a11.16,11.16,0,0,1-.2-3.58c0-2.9,0-4.79,2.82-4.93s3,1.84,3,4.93a14.13,14.13,0,0,1-.2,3.58C261.7,213.22,258,212.56,257.25,210.67Z"/><path class="cls-2" d="M262.69,210.67c-1,2.55-4.71,1.89-5.44,0a11.16,11.16,0,0,1-.2-3.58c0-2.9,0-4.79,2.82-4.93s3,1.84,3,4.93A14.13,14.13,0,0,1,262.69,210.67Z"/><polygon class="cls-2" points="243.5 217.6 243.5 217.63 243.33 217.63 243.5 217.6"/><path class="cls-1" d="M129.45,148.69a5.87,5.87,0,0,1-2.87,5,6.41,6.41,0,0,1-6.61,0,5.87,5.87,0,0,1-2.87-5,6.18,6.18,0,0,1,12.36,0Z"/><path class="cls-3" d="M243.24,8.16V137.42H1.2V8.16A8.3,8.3,0,0,1,9.62,0H234.81A8.3,8.3,0,0,1,243.24,8.16Z"/><path class="cls-4" d="M1.81,137.42v14.29c0,5,3.76,9.1,8.39,9.1H111.94v26.81H25v8.81H221.53v-8.81H134.6V160.81h99.68c4.63,0,8.39-4.07,8.39-9.1V137.42ZM126.58,153.7a6.41,6.41,0,0,1-6.61,0,5.87,5.87,0,0,1-2.87-5,6.18,6.18,0,0,1,12.36,0A5.87,5.87,0,0,1,126.58,153.7Z"/><path class="cls-1" d="M126.58,153.7a6.41,6.41,0,0,1-6.61,0Z"/><path class="cls-3" d="M129.45,148.69a5.87,5.87,0,0,1-2.87,5,6.41,6.41,0,0,1-6.61,0,5.87,5.87,0,0,1-2.87-5,6.18,6.18,0,0,1,12.36,0Z"/><path class="cls-3" d="M255.73,202.84c-.33,1.09-.1,2.88-.1,4.45a21.16,21.16,0,0,0,.1,4.35c.39,1.39,1.59,1.9,2.42,2.52v3.48H243.5v0l-.17,0c-.08-4.42-.24-8.93,0-12.67.45-6.84,6.11-11.51,14.16-11.43h.66v6.77C257.56,201,256.18,201.37,255.73,202.84Z"/><polygon class="cls-3" points="243.5 217.6 243.5 217.63 243.33 217.63 243.5 217.6"/><path class="cls-3" d="M276.61,217.63H261.78v-3.38c.7-.75,2-1.14,2.43-2.51.32-1.06.1-2.76.1-4.45a19.82,19.82,0,0,0-.1-4.35c-.41-1.46-1.7-1.95-2.43-2.51v-6.58c0-.13,0-.27.1-.29l.53,0A14.38,14.38,0,0,1,273,197.22a12,12,0,0,1,3.63,7.65C276.88,208.56,276.59,213,276.61,217.63Z"/><path class="cls-3" d="M262.69,210.67c-1,2.55-4.71,1.89-5.44,0a11.16,11.16,0,0,1-.2-3.58c0-2.9,0-4.79,2.82-4.93s3,1.84,3,4.93A14.13,14.13,0,0,1,262.69,210.67Z"/><path class="cls-3" d="M275.1,233.6a12.91,12.91,0,0,1-10.5,6.39,50.82,50.82,0,0,1-10.69-.2,12.25,12.25,0,0,1-10.49-10.64c-.34-2.89,0-6.32-.1-10.18v-.26a.12.12,0,0,1,.1-.12H276.6v.75q0,1,0,2.08v.16C276.67,226.3,276.92,230.4,275.1,233.6Z"/><text class="cls-5" transform="translate(9.44 90.24)"><tspan class="cls-6">Y</tspan><tspan x="30.93" y="0">OU WIN!</tspan></text></g></svg>