<svg xmlns="http://www.w3.org/2000/svg" viewBox="0 0 275.53 264.33"><defs><style>.cls-1{fill:#efefef;}.cls-1,.cls-2,.cls-3,.cls-4{fill-rule:evenodd;}.cls-2{fill:#fff;}.cls-4{fill:#f4f4f4;}.cls-5{fill:#121212;}.cls-6{fill:#130a0b;}.cls-7{fill:#2a1b1c;}.cls-8{fill:#eb2835;}.cls-9{fill:#afd21e;}.cls-10{fill:#150d0d;}.cls-11{fill:#1f1314;}.cls-12{fill:#171010;}.cls-13{fill:#190708;}.cls-14{fill:#171610;}.cls-15{fill:#fdf8f8;}.cls-16{fill:#fdf7f7;}.cls-17{fill:#faee00;}</style></defs><title>breadcrumb4</title><g id="bc4"><path class="cls-1" d="M219.34,260.54a3.75,3.75,0,0,1-3.71,3.79H26.52a3.75,3.75,0,0,1-3.71-3.79v-49.4a3.75,3.75,0,0,1,3.71-3.79H215.64a3.75,3.75,0,0,1,3.71,3.79Z"/><rect x="77.59" y="251.29" width="84.87" height="8.99"/><rect x="181.81" y="238.22" width="33.73" height="8.99"/><rect x="27.41" y="238.22" width="33.73" height="8.99"/><rect x="166.77" y="251.29" width="23.48" height="8.99"/><rect x="54.49" y="251.29" width="19.57" height="8.99"/><rect x="27.41" y="251.29" width="23.48" height="8.99"/><rect x="194.34" y="251.29" width="21.01" height="8.99"/><rect x="194.17" y="225.14" width="21.37" height="8.99"/><rect x="27.41" y="225.14" width="27.09" height="8.99"/><rect x="170.98" y="212.07" width="44.56" height="8.99"/><rect x="64.9" y="238.22" width="9.58" height="8.99"/><rect x="77.71" y="238.22" width="9.58" height="8.99"/><rect x="90.52" y="238.22" width="9.58" height="8.99"/><rect x="103.33" y="238.22" width="9.58" height="8.99"/><rect x="116.14" y="238.22" width="9.58" height="8.99"/><rect x="128.95" y="238.22" width="9.58" height="8.99"/><rect x="141.76" y="238.22" width="9.58" height="8.99"/><rect x="154.57" y="238.22" width="9.58" height="8.99"/><rect x="167.39" y="238.22" width="9.58" height="8.99"/><rect x="58.91" y="225.14" width="9.58" height="8.99"/><rect x="71.72" y="225.14" width="9.58" height="8.99"/><rect x="84.53" y="225.14" width="9.58" height="8.99"/><rect x="97.34" y="225.14" width="9.58" height="8.99"/><rect x="110.15" y="225.14" width="9.58" height="8.99"/><rect x="122.96" y="225.14" width="9.58" height="8.99"/><rect x="135.78" y="225.14" width="9.58" height="8.99"/><rect x="148.59" y="225.14" width="9.58" height="8.99"/><rect x="161.4" y="225.14" width="9.58" height="8.99"/><rect x="174.34" y="225.14" width="9.58" height="8.99"/><rect x="28.02" y="212.07" width="9.58" height="8.99"/><rect x="40.83" y="212.07" width="9.58" height="8.99"/><rect x="53.64" y="212.07" width="9.58" height="8.99"/><rect x="66.45" y="212.07" width="9.58" height="8.99"/><rect x="79.26" y="212.07" width="9.58" height="8.99"/><rect x="92.07" y="212.07" width="9.58" height="8.99"/><rect x="104.88" y="212.07" width="9.58" height="8.99"/><rect x="117.69" y="212.07" width="9.58" height="8.99"/><rect x="130.51" y="212.07" width="9.58" height="8.99"/><rect x="143.44" y="212.07" width="9.58" height="8.99"/><rect x="156.61" y="212.07" width="9.58" height="8.99"/><rect x="187.15" y="225.14" width="9.58" height="8.99"/><path class="cls-2" d="M259.59,217.63v-3.38c.7-.75,2-1.14,2.43-2.51.32-1.06.1-2.76.1-4.45a19.82,19.82,0,0,0-.1-4.35c-.41-1.46-1.7-1.95-2.43-2.51v-6.58c0-.13,0-.27.1-.29l.53,0h0l-4.91,0H256v6.77c-.6.72-2,1.05-2.42,2.52-.33,1.09-.1,2.88-.1,4.45a21.16,21.16,0,0,0,.1,4.35c.39,1.39,1.59,1.9,2.42,2.52v3.48H241.14l0,1c0-.05,0,0,.07,0h33.18v-1Zm-4.53-7a11.16,11.16,0,0,1-.2-3.58c0-2.9,0-4.79,2.82-4.93s3,1.84,3,4.93a14.13,14.13,0,0,1-.2,3.58C259.51,213.22,255.79,212.56,255.06,210.67Z"/><path class="cls-2" d="M260.5,210.67c-1,2.55-4.71,1.89-5.44,0a11.16,11.16,0,0,1-.2-3.58c0-2.9,0-4.79,2.82-4.93s3,1.84,3,4.93A14.13,14.13,0,0,1,260.5,210.67Z"/><polygon class="cls-2" points="241.31 217.6 241.31 217.63 241.14 217.63 241.31 217.6"/><path class="cls-1" d="M127.26,148.69a5.87,5.87,0,0,1-2.87,5,6.41,6.41,0,0,1-6.61,0,5.87,5.87,0,0,1-2.87-5,6.18,6.18,0,0,1,12.36,0Z"/><path class="cls-3" d="M241,8.16V137.42H-1V8.16A8.3,8.3,0,0,1,7.43,0H232.62A8.3,8.3,0,0,1,241,8.16Z"/><path class="cls-4" d="M-.38,137.42v14.29c0,5,3.76,9.1,8.39,9.1H109.75v26.81H22.82v8.81H219.34v-8.81H132.41V160.81h99.68c4.63,0,8.39-4.07,8.39-9.1V137.42ZM124.39,153.7a6.41,6.41,0,0,1-6.61,0,5.87,5.87,0,0,1-2.87-5,6.18,6.18,0,0,1,12.36,0A5.87,5.87,0,0,1,124.39,153.7Z"/><path class="cls-1" d="M124.39,153.7a6.41,6.41,0,0,1-6.61,0Z"/><path class="cls-3" d="M127.26,148.69a5.87,5.87,0,0,1-2.87,5,6.41,6.41,0,0,1-6.61,0,5.87,5.87,0,0,1-2.87-5,6.18,6.18,0,0,1,12.36,0Z"/><path class="cls-3" d="M253.54,202.84c-.33,1.09-.1,2.88-.1,4.45a21.16,21.16,0,0,0,.1,4.35c.39,1.39,1.59,1.9,2.42,2.52v3.48H241.31v0l-.17,0c-.08-4.42-.24-8.93,0-12.67.45-6.84,6.11-11.51,14.16-11.43H256v6.77C255.37,201,254,201.37,253.54,202.84Z"/><polygon class="cls-3" points="241.31 217.6 241.31 217.63 241.14 217.63 241.31 217.6"/><path class="cls-3" d="M274.42,217.63H259.59v-3.38c.7-.75,2-1.14,2.43-2.51.32-1.06.1-2.76.1-4.45a19.82,19.82,0,0,0-.1-4.35c-.41-1.46-1.7-1.95-2.43-2.51v-6.58c0-.13,0-.27.1-.29l.53,0a14.38,14.38,0,0,1,10.57,3.69,12,12,0,0,1,3.63,7.65C274.69,208.56,274.4,213,274.42,217.63Z"/><path class="cls-3" d="M260.5,210.67c-1,2.55-4.71,1.89-5.44,0a11.16,11.16,0,0,1-.2-3.58c0-2.9,0-4.79,2.82-4.93s3,1.84,3,4.93A14.13,14.13,0,0,1,260.5,210.67Z"/><path class="cls-3" d="M272.91,233.6a12.91,12.91,0,0,1-10.5,6.39,50.82,50.82,0,0,1-10.69-.2,12.25,12.25,0,0,1-10.49-10.64c-.34-2.89,0-6.32-.1-10.18v-.26a.12.12,0,0,1,.1-.12h33.18v.75q0,1,0,2.08v.16C274.48,226.3,274.73,230.4,272.91,233.6Z"/><path class="cls-3" d="M274.42,218.6c0,.25,0,.5,0,.75v-.75Z"/><g id="_4IEKKP.tif" data-name="4IEKKP.tif"><path class="cls-5" d="M183.58,72.23a3.94,3.94,0,0,1,4.62-.79c1.39.52,1.39.49,1.84-.95a29.44,29.44,0,0,0,.86-12.66,7.18,7.18,0,0,0-.11-.94,1.69,1.69,0,0,1,1.12-2.17c.19-.09.5-.08.52-.4h1.05c1.37,1.5,2.75,3,4.1,4.51.42.47.76,1,1.14,1.49l-.32.25a55.44,55.44,0,0,0-4.71-5.06l-.22-.14c-.85-.63-1.86-.14-2.16,1.06,0,0-.06.05-.05.06a.85.85,0,0,0,.08.13,12.65,12.65,0,0,0,.08,1.36,29,29,0,0,1-.62,11.68,7.51,7.51,0,0,0-.66,2.8c1-.35.91-1.29,1.29-1.93l.17-.2c0-.52.38-1,.25-1.48l.18-.18.23-2.13c.25,0,.5-.1.2-.42l.22-2.75c.43-.09.51-.3.2-.63V59.37c.3-.31.06-.37-.19-.41-.09-.57.09-1.18-.23-1.73a.53.53,0,0,1,.06-.49c.2-.22.39,0,.53.13.58.39,1.14.79,1.69,1.22.21.16.47.38.1.67l-1.39-1.06a30.76,30.76,0,0,1-1.82,14.11c1-.11,2-.45,2.77.16l-.19.25a4.06,4.06,0,0,0-2.93.4,2.25,2.25,0,0,1-2.34-.18c-1.68-1.07-3.43-1.34-5.12,0Z"/><path class="cls-6" d="M213.52,76.24c-.31,0-.25.35-.42.48-.27-.27-.14-.59-.11-.88a8.17,8.17,0,0,0-.88-4.72l.19-.19c.72.62.71,1.63,1.22,2.36Z"/><path class="cls-7" d="M190.34,84.46c-.17-.42-.67-.46-.92-.8l.43-.1a3.37,3.37,0,0,0,2,.29l0,.3c-.1.17-.41.05-.45.31Z"/><path class="cls-5" d="M200,72.64c.46-.83,1.33-.8,2.09-1,.33-.09.65-.13.43-.59-1.63-3.27-2.79-6.8-5.1-9.71.5-.32.7.13.92.4a15.7,15.7,0,0,1,1.78,2.84q1.45,3,2.92,6c.11.23.14.65.52.51s.17-.47,0-.71c-1.73-3.27-3-6.81-5.16-9.84l.32-.25c2.19,2.74,3.46,6,4.88,9.13.35.78.58.85,1.15.34l.27.28C203.94,72.09,201.81,72.07,200,72.64Z"/><path class="cls-5" d="M204.76,69.79c2.34-1.72,4.59-1.65,6.06-.31l-.32.05c-2-1.15-3.73-.55-5.47.54Z"/><path class="cls-6" d="M210.5,69.53l.32-.05c.47,0,.59.37.83.63l-.19.19Z"/><path class="cls-6" d="M211.65,70.11c.27.24.67.37.66.82l-.19.19-.65-.82Z"/><path class="cls-8" d="M211.46,70.3l.65.82a8.17,8.17,0,0,1,.88,4.72c0,.3-.17.62.11.88a7.22,7.22,0,0,1-.86,2l-2.09,2.38c-.13.39-.5.46-.81.61l-2.56.48a8.71,8.71,0,0,1-3.38-.86A8,8,0,0,1,201,79.3a4.79,4.79,0,0,0-.35-.73,5,5,0,0,1-.74-4.67,1.92,1.92,0,0,0,.11-1.26h0c1.83-.57,4-.55,5-2.57,1.73-1.09,3.52-1.69,5.47-.54Zm-8.73,2.81a1.57,1.57,0,0,0-1.57,1.63,1.68,1.68,0,0,0,1.63,1.61,1.58,1.58,0,0,0,1.35-1.72A1.44,1.44,0,0,0,202.73,73.11Z"/><path class="cls-9" d="M198.41,60.58c2.2,3,3.43,6.56,5.16,9.84.12.24.32.57,0,.71s-.41-.28-.52-.51q-1.47-3-2.92-6a15.7,15.7,0,0,0-1.78-2.84c-.21-.27-.41-.72-.92-.4l-.3-.35h.2c.12-.67-1.78-2.41-2.44-2.23h0c.36-.28.11-.5-.1-.67-.55-.43-1.11-.83-1.69-1.22-.15-.1-.34-.35-.53-.13a.53.53,0,0,0-.06.49c.32.55.15,1.16.23,1.73,0,.18,0,.36.19.41v3.39c-.33.13-.2.4-.2.63l-.22,2.75c-.24.06-.22.23-.2.42L192,68.68c-.12,0-.19.05-.18.18.13.53-.3,1-.25,1.48-.12,0-.2.07-.17.2-.37.65-.3,1.59-1.29,1.93a7.51,7.51,0,0,1,.66-2.8A29,29,0,0,0,191.43,58a12.64,12.64,0,0,1-.08-1.36.25.25,0,0,0,0-.2c.3-1.2,1.31-1.69,2.16-1.06,0,.1.08.19.22.14A55.44,55.44,0,0,1,198.41,60.58Z"/><path class="cls-10" d="M191.84,84.15l0-.3a4.34,4.34,0,0,0,1.89-1.62c1.57-2.87,2.92-5.79,1.51-9.15l.25,0a5.57,5.57,0,0,1,.64,3.56,14,14,0,0,1-1.56,5.26A3.78,3.78,0,0,1,191.84,84.15Z"/><path class="cls-5" d="M200,72.65a1.92,1.92,0,0,1-.11,1.26,5,5,0,0,0,.74,4.67,4.79,4.79,0,0,1,.35.73,2.4,2.4,0,0,1-1.36-1.84A6.28,6.28,0,0,1,200,72.65Z"/><path class="cls-11" d="M203.39,81.36a8.71,8.71,0,0,0,3.38.86v.34a4.12,4.12,0,0,1-3.19-.79A.39.39,0,0,1,203.39,81.36Z"/><path class="cls-12" d="M206.78,82.56v-.34l2.56-.48C208.72,82.73,207.75,82.65,206.78,82.56Z"/><path class="cls-13" d="M210.15,81.12l2.09-2.38A2.6,2.6,0,0,1,210.15,81.12Z"/><path class="cls-5" d="M194.86,58.75c.65-.18,2.55,1.56,2.44,2.23h-.2Z"/><path class="cls-5" d="M195.46,73.06l-.25,0-.35-.51.17-.18A.63.63,0,0,1,195.46,73.06Z"/><path class="cls-5" d="M194.65,72.07l.38.32-.17.18-.35-.28Z"/><path class="cls-5" d="M194.41,72l.24.12-.14.22-.29-.09Z"/><path class="cls-5" d="M189.85,83.56l-.43.1a3.5,3.5,0,0,0-2.26,0,3.45,3.45,0,0,1-2.85-.72c-2.67-1.54-3.36-8.91-.73-10.67l.25.24c-.09.42-.85.57-.48,1.18h0c-.26,0-.48,0-.57.32a9,9,0,0,0,.67,7.13c.84,1.55,2.55,2.52,3.58,2A2.28,2.28,0,0,1,189.85,83.56Z"/><path class="cls-8" d="M183.34,73.64c-.37-.61.39-.76.48-1.18,1.7-1.38,3.45-1.11,5.12,0a2.25,2.25,0,0,0,2.34.18,4.06,4.06,0,0,1,2.93-.4l.29.09.35.28.35.51c1.41,3.37.06,6.28-1.51,9.15a4.34,4.34,0,0,1-1.89,1.62,3.37,3.37,0,0,1-2-.29A2.28,2.28,0,0,0,187,83.1c-1,.52-2.75-.46-3.58-2a9,9,0,0,1-.67-7.13c.09-.31.31-.33.57-.32a1.78,1.78,0,0,0,0,1.63c.37.53.64,1.37,1.62,1a1.68,1.68,0,0,0,1.15-1.7,1.42,1.42,0,0,0-.76-1.4A1.78,1.78,0,0,0,183.34,73.64Z"/><path class="cls-14" d="M192.68,63.39c0-.23-.13-.5.2-.63C193.2,63.09,193.11,63.29,192.68,63.39Z"/><path class="cls-14" d="M192.26,66.55c0-.18,0-.36.2-.42C192.76,66.45,192.52,66.5,192.26,66.55Z"/><path class="cls-14" d="M192.89,59.37c-.24-.06-.22-.23-.19-.41C192.95,59,193.18,59.07,192.89,59.37Z"/><path class="cls-14" d="M191.85,68.86c0-.13.06-.18.18-.18Z"/><path class="cls-14" d="M191.43,70.55c0-.14,0-.19.17-.2Z"/><path class="cls-14" d="M191.32,56.44a.25.25,0,0,1,0,.2.85.85,0,0,1-.08-.13S191.3,56.46,191.32,56.44Z"/><path class="cls-14" d="M193.7,55.52c-.14.05-.18,0-.22-.14Z"/><path class="cls-15" d="M202.73,73.11a1.44,1.44,0,0,1,1.41,1.52,1.58,1.58,0,0,1-1.35,1.72,1.68,1.68,0,0,1-1.63-1.61A1.57,1.57,0,0,1,202.73,73.11Z"/><path class="cls-16" d="M183.34,73.64a1.78,1.78,0,0,1,2-.5,1.42,1.42,0,0,1,.76,1.4,1.68,1.68,0,0,1-1.15,1.7c-1,.39-1.25-.44-1.62-1a1.78,1.78,0,0,1,0-1.63Z"/></g><path class="cls-17" d="M173.71,69.39l25.81,16.94a31.63,31.63,0,0,1-25.81,13.06c-17.28,0-31.28-13.43-31.28-30s14-30,31.28-30a31.62,31.62,0,0,1,25.81,13.06Z"/><ellipse cx="173.43" cy="53.24" rx="4.29" ry="4.11"/></g></svg>