<?xml version="1.0" encoding="utf-8"?>
<!-- Generator: Adobe Illustrator 21.0.2, SVG Export Plug-In . SVG Version: 6.00 Build 0)  -->
<svg version="1.1" id="Layer_1" xmlns="http://www.w3.org/2000/svg" xmlns:xlink="http://www.w3.org/1999/xlink" x="0px" y="0px"
	 viewBox="0 0 492.1 189" style="enable-background:new 0 0 492.1 189;" xml:space="preserve">
<style type="text/css">
	.st0{fill-rule:evenodd;clip-rule:evenodd;fill:#FFFFFF;}
	.st1{fill:#36C68B;}
	.st2{fill:#FFFFFF;}
</style>
<g>
	<g>
		<path class="st0" d="M30.7,124.7c-0.4,0.4-0.7,0.7-1.1,1.1c-1.3,0.7-2.7,0.7-4,0c-0.4-0.4-0.7-0.7-1.1-1.1
			c-1.6-2.2,1.7-3.7,2.1-5.6c0.6-2.8-3-6.3-2.2-8.9c-2.5-0.6-5,0-7.5-0.3c0-1.2-0.3-2.4,0.2-3.6c3.5-0.5,7.1-1.5,10.6-2.4
			c3.6,1,7.1,1.8,10.7,2.5c0,1.2,0.3,2.4-0.2,3.6c-2.4,0-4.9-0.3-7.3,0.1c0.7,3.2-2.7,5.9-2,9.1C29.2,121.2,32.3,123,30.7,124.7z"/>
		<polygon class="st0" points="23.8,102 22.3,66.6 27.7,56.4 32.9,66.9 31.1,102.2 27.6,100.9 		"/>
	</g>
	<path class="st1" d="M348.6,57h17.1c0,0,16.6-24.2,10.9-50.9C376.6,6.1,370.3,46.3,348.6,57z"/>
	<path class="st2" d="M47.9,80.1c0,0,12.6,9.7,20.4,8.8c7.8-0.9,1.8-11,0.4-13.9c-1.4-2.9,0.9,5.6-1.4,7.9c-2.4,2.5-3.1-9.3-12.7-5
		c-3.8,1.7,3.6-10.9,3.7-11C58.5,66.9,44.2,72.2,47.9,80.1z"/>
	<path class="st1" d="M471.9,120.5c-8.1,1.4-4.1,8.8-5.7,12.4c-1.5,3.2-5.7-12.1-15.8-7.3v59h-21.3v-53.5h-25.9v53.5H382v-71.3h50.5
		c3.5-5.6,5.1-13.4-9.1-17c-23.3-5.8,43.1-15.1,61.4,24.5C494.5,141.9,480,119.1,471.9,120.5z"/>
	<polygon class="st2" points="68,113 68,184.9 5.2,184.9 5.2,167 47.5,167 47.5,130.8 21.6,130.8 21.6,113 	"/>
	<path class="st2" d="M47.6,100.9V83.2c0,0,8.5,7.8,20.4,8.9v8.9L47.6,100.9"/>
	<polygon class="st1" points="125.3,100.3 125.3,78 99.8,78 99.8,167 125.3,167 125.3,146.1 147.6,146.1 147.6,184.9 78,184.9 
		78,60.1 147.6,60.1 147.6,100.3 	"/>
	<path class="st1" d="M155.4,113.3v71.3H178v-53.5h25v17.8h20.9v-35.6H155.4z"/>
	<path class="st1" d="M231.5,113.3v71.3H299v-71.3H231.5z M279.3,164.8h-25.9v-28.1h25.9V164.8z"/>
	<path class="st1" d="M306.9,60.1v17.8h6.1l1.7,4.4l2.5,6.7l2.5-6.7l1.7-4.4h5l1.5,3.5l2.5,5.8l2.5-5.8l1.5-3.5h5.4l1.2,2.1l2.5,4.4
		l2.5-4.4l1.2-2.1h6.7v6.7L351,86l-29.3,12.4l2.6,6.1l29.8-12.6v21.7h-47.2v71.3h68.5V60.1H306.9z M354.1,165.1h-25.9V137h25.9
		V165.1z"/>
	<path class="st1" d="M328.1,56.7h11c0,0-12.5-20.8-1.1-31.7C349.3,14,311.3,39.5,328.1,56.7z"/>
	<path class="st1" d="M351.7,93.3"/>
</g>
</svg>
